<?xml version="1.0" encoding="UTF-8" standalone="no"?>
<svg
   xmlns:dc="http://purl.org/dc/elements/1.1/"
   xmlns:cc="http://creativecommons.org/ns#"
   xmlns:rdf="http://www.w3.org/1999/02/22-rdf-syntax-ns#"
   xmlns:svg="http://www.w3.org/2000/svg"
   xmlns="http://www.w3.org/2000/svg"
   xmlns:sodipodi="http://sodipodi.sourceforge.net/DTD/sodipodi-0.dtd"
   xmlns:inkscape="http://www.inkscape.org/namespaces/inkscape"
   height="32px"
   style="enable-background:new 0 0 32 32;"
   version="1.1"
   viewBox="0 0 32 32"
   width="32px"
   x="0px"
   xml:space="preserve"
   y="0px"
   id="svg3005"
   inkscape:version="0.48.3.1 r9886"
   sodipodi:docname="1385347400_fullscreen.svg"><metadata
     id="metadata3023"><rdf:RDF><cc:Work
         rdf:about=""><dc:format>image/svg+xml</dc:format><dc:type
           rdf:resource="http://purl.org/dc/dcmitype/StillImage" /><dc:title></dc:title></cc:Work></rdf:RDF></metadata><defs
     id="defs3021" /><sodipodi:namedview
     pagecolor="#ffffff"
     bordercolor="#666666"
     borderopacity="1"
     objecttolerance="10"
     gridtolerance="10"
     guidetolerance="10"
     inkscape:pageopacity="0"
     inkscape:pageshadow="2"
     inkscape:window-width="2560"
     inkscape:window-height="1538"
     id="namedview3019"
     showgrid="false"
     inkscape:zoom="42.46875"
     inkscape:cx="11.185311"
     inkscape:cy="15.962068"
     inkscape:window-x="-8"
     inkscape:window-y="-8"
     inkscape:window-maximized="1"
     inkscape:current-layer="svg3005" /><g
     id="Layer_1" /><g
     id="fullscreen"><g
       id="g3009"><polygon
         points="27.414,24.586 22.828,20 20,22.828 24.586,27.414 20,32 32,32 32,20   "
         style="fill:#4E4E50;"
         id="polygon3011" /><polygon
         points="12,0 0,0 0,12 4.586,7.414 9.129,11.953 11.957,9.125 7.414,4.586   "
         style="fill:#4E4E50;"
         id="polygon3013" /><polygon
         points="12,22.828 9.172,20 4.586,24.586 0,20 0,32 12,32 7.414,27.414   "
         style="fill:#4E4E50;"
         id="polygon3015" /><polygon
         points="32,0 20,0 24.586,4.586 20.043,9.125 22.871,11.953 27.414,7.414 32,12   "
         style="fill:#4E4E50;"
         id="polygon3017" /></g></g><path
     style="fill:#00aad4;fill-opacity:1;fill-rule:nonzero;stroke:none"
     d="m 29.710081,9.7260054 -2.289889,-2.2898885 -2.272285,2.2721936 -2.272285,2.2721935 -1.42529,-1.425291 -1.425291,-1.4252899 2.273332,-2.2711177 2.273331,-2.2711175 -2.301995,-2.3020854 -2.301996,-2.30208521 6.02203,0 6.02203,0 0,6.01618841 c 0,3.3089036 -0.0027,6.0161883 -0.0059,6.0161883 -0.0032,0 -1.036352,-1.03045 -2.295791,-2.2898886 l 0,0 z"
     id="path3029"
     inkscape:connector-curvature="0" /><path
     style="fill:#00aad4;fill-opacity:1;fill-rule:nonzero;stroke:none"
     d="m -0.01177336,6.0055471 0,-6.02202981 6.02203006,0 6.0220303,0 L 9.7302913,2.2856025 7.4282959,4.5876879 9.7016272,6.8588054 11.974959,9.1299231 10.549668,10.555213 9.1243776,11.980504 6.8521077,9.7083255 4.5798376,7.436147 2.2840321,9.7318619 l -2.29580546,2.2957151 0,-6.0220299 z"
     id="path3031"
     inkscape:connector-curvature="0" /><path
     style="fill:#00aad4;fill-opacity:1;fill-rule:nonzero;stroke:none"
     d="m -0.01177336,26.002649 c 0,-3.302428 0.0079675,-6.004415 0.01770556,-6.004415 0.00973806,0 1.0454793,1.027815 2.3016471,2.284033 l 2.2839415,2.284032 2.2899506,-2.28986 2.2899504,-2.28986 1.4246042,1.424459 1.424605,1.424458 -2.2898873,2.289978 -2.2898878,2.289979 2.2957151,2.295805 2.295715,2.295806 -6.0220295,0 -6.02202986,0 0,-6.004415 z"
     id="path3033"
     inkscape:connector-curvature="0" /><path
     style="fill:#6da5c6;fill-opacity:1;fill-rule:nonzero;stroke:none"
     d="m 22.263429,29.711258 2.295715,-2.295805 -2.289888,-2.289979 -2.289887,-2.289978 1.424604,-1.424458 1.424605,-1.424459 2.289951,2.28986 2.28995,2.28986 2.283942,-2.284032 c 1.256168,-1.256218 2.291909,-2.284033 2.301647,-2.284033 0.0097,0 0.0177,2.701987 0.0177,6.004415 l 0,6.004415 -6.022029,0 -6.02203,0 2.295715,-2.295806 z"
     id="path3035"
     inkscape:connector-curvature="0" /><path
     style="fill:#6da5c6;fill-opacity:1;fill-rule:nonzero;stroke:none"
     d="M 29.699154,9.7383613 27.407727,7.4627103 25.13699,9.7333562 22.866252,12.004002 21.441662,10.579557 C 20.658137,9.7961129 20.017071,9.1427311 20.017071,9.1275976 c 0,-0.015133 1.019689,-1.040491 2.265974,-2.2785721 l 2.265974,-2.2510569 -2.307136,-2.3072257 -2.307135,-2.30722561 6.045577,0 6.045576,0 0,6.01618841 c 0,3.3089036 -0.0079,6.0157653 -0.01766,6.0152473 -0.0097,-5.18e-4 -1.048802,-1.024984 -2.309087,-2.2765917 z"
     id="path3805"
     inkscape:connector-curvature="0" /><path
     style="fill:#6da5c6;fill-opacity:1;fill-rule:nonzero;stroke:none"
     d="m -0.02119205,6.0173205 0,-6.03380321 6.03380345,0 6.0338036,0 L 9.7447669,2.285255 7.443119,4.5869928 9.7153893,6.8591715 11.98766,9.1313505 10.551309,10.567701 9.1149591,12.004051 6.842689,9.7318723 4.570419,7.4596938 2.2746135,9.7554086 l -2.29580555,2.2957144 0,-6.0338025 z"
     id="path3807"
     inkscape:connector-curvature="0" /><path
     style="fill:#6da5c6;fill-opacity:1;fill-rule:nonzero;stroke:none"
     d="m -0.01760206,26.027371 c 0.0055361,-4.045287 0.01599847,-5.987507 0.03234163,-6.003849 0.01651255,-0.01651 0.74308405,0.694798 2.29576023,2.247537 l 2.2716021,2.271694 2.2899511,-2.289861 2.2899508,-2.28986 1.4363772,1.436232 1.436378,1.436233 -2.2898878,2.289978 -2.2898872,2.289978 2.295715,2.295805 2.295715,2.295806 -6.0360996,0 -6.03609982,0 0.0081834,-5.979693 z"
     id="path3809"
     inkscape:connector-curvature="0" /><path
     style="fill:#6da5c6;fill-opacity:1;fill-rule:nonzero;stroke:none"
     d="m 22.230463,29.711258 2.295715,-2.295805 -2.2781,-2.278191 c -1.252955,-1.253005 -2.2781,-2.293182 -2.2781,-2.311504 0,-0.01832 0.0075,-0.02582 0.01664,-0.01667 0.02098,0.02098 2.834015,-2.789372 2.817987,-2.815306 -0.0065,-0.0105 -0.0032,-0.0191 0.0073,-0.0191 0.0105,0 1.046091,1.027037 2.301309,2.282305 l 2.282214,2.282305 2.070216,-2.052724 c 1.138619,-1.128999 2.074294,-2.047427 2.079278,-2.040951 0.005,0.0065 0.104172,-0.0829 0.220416,-0.198601 l 0.211354,-0.210375 0.01337,0.434069 c 0.0074,0.238737 0.01868,2.932081 0.02518,5.985208 l 0.0118,5.551141 -6.046145,0 -6.046145,0 2.295715,-2.295806 z"
     id="path3811"
     inkscape:connector-curvature="0" /></svg>